<svg width="160" height="160" viewBox="0 0 160 160" fill="none" xmlns="http://www.w3.org/2000/svg">
<rect width="160" height="160" rx="16" fill="#2A2A2A"/>
<ellipse cx="130" cy="57.5134" rx="2.66667" ry="2.79236" fill="#2EC6DE"/>
<path d="M139.568 40.239C140.259 40.6568 140.807 41.453 141.122 42.7213C141.438 43.9936 141.492 45.6529 141.25 47.6118C140.766 51.524 139.126 56.4217 136.411 61.3454C133.696 66.2691 130.466 70.2054 127.472 72.6004C125.973 73.7995 124.574 74.5796 123.363 74.9293C122.157 75.278 121.224 75.1788 120.533 74.7612C119.842 74.3434 119.293 73.5469 118.979 72.2784C118.663 71.006 118.609 69.3471 118.851 67.3883C119.335 63.4761 120.974 58.5779 123.689 53.6542C126.404 48.7304 129.635 44.7947 132.629 42.3997C134.128 41.2006 135.527 40.4201 136.737 40.0703C137.943 39.7216 138.877 39.8212 139.568 40.239Z" stroke="#2EC6DE" stroke-width="2"/>
<path d="M120.533 40.2386C121.224 39.821 122.157 39.7218 123.363 40.0704C124.574 40.4202 125.973 41.2002 127.472 42.3994C130.466 44.7944 133.696 48.7307 136.411 53.6543C139.126 58.578 140.766 63.4758 141.25 67.388C141.492 69.3468 141.437 71.0062 141.122 72.2785C140.807 73.5468 140.258 74.343 139.568 74.7608C138.876 75.1786 137.943 75.2782 136.737 74.9295C135.527 74.5797 134.128 73.7991 132.629 72.6C129.635 70.205 126.404 66.2693 123.689 61.3456C120.974 56.4218 119.335 51.5237 118.851 47.6114C118.609 45.6526 118.663 43.9938 118.978 42.7214C119.293 41.4529 119.842 40.6564 120.533 40.2386Z" stroke="#2EC6DE" stroke-width="2"/>
<path d="M111 57.513C111 56.6401 111.402 55.7291 112.29 54.8128C113.183 53.8917 114.524 53.0167 116.258 52.2601C119.724 50.7479 124.581 49.7874 130 49.7874C135.419 49.7874 140.276 50.7479 143.742 52.2601C145.476 53.0167 146.817 53.8917 147.71 54.8128C148.598 55.7291 149 56.6401 149 57.513C149 58.386 148.598 59.2977 147.71 60.2142C146.817 61.1352 145.476 62.0102 143.742 62.7669C140.276 64.2791 135.419 65.2396 130 65.2396C124.581 65.2396 119.724 64.2791 116.258 62.7669C114.524 62.0102 113.183 61.1352 112.29 60.2142C111.402 59.2977 111 58.386 111 57.513Z" stroke="#2EC6DE" stroke-width="2"/>
<path d="M46.0568 85V76.2727H49.108C49.7159 76.2727 50.2173 76.3778 50.6122 76.5881C51.0071 76.7955 51.3011 77.0753 51.4943 77.4276C51.6875 77.777 51.7841 78.1648 51.7841 78.5909C51.7841 78.9659 51.7173 79.2756 51.5838 79.5199C51.4531 79.7642 51.2798 79.9574 51.0639 80.0994C50.8509 80.2415 50.6193 80.3466 50.3693 80.4148V80.5C50.6364 80.517 50.9048 80.6108 51.1747 80.7812C51.4446 80.9517 51.6705 81.196 51.8523 81.5142C52.0341 81.8324 52.125 82.2216 52.125 82.6818C52.125 83.1193 52.0256 83.5128 51.8267 83.8622C51.6278 84.2116 51.3139 84.4886 50.8849 84.6932C50.456 84.8977 49.8977 85 49.2102 85H46.0568ZM47.1136 84.0625H49.2102C49.9006 84.0625 50.3906 83.929 50.6804 83.6619C50.973 83.392 51.1193 83.0653 51.1193 82.6818C51.1193 82.3864 51.044 82.1136 50.8935 81.8636C50.7429 81.6108 50.5284 81.4091 50.25 81.2585C49.9716 81.1051 49.642 81.0284 49.2614 81.0284H47.1136V84.0625ZM47.1136 80.108H49.0739C49.392 80.108 49.679 80.0455 49.9347 79.9205C50.1932 79.7955 50.3977 79.6193 50.5483 79.392C50.7017 79.1648 50.7784 78.8977 50.7784 78.5909C50.7784 78.2074 50.6449 77.8821 50.3778 77.6151C50.1108 77.3452 49.6875 77.2102 49.108 77.2102H47.1136V80.108ZM57.8501 82.3239V78.4545H58.8558V85H57.8501V83.892H57.782C57.6286 84.2244 57.3899 84.5071 57.0661 84.7401C56.7422 84.9702 56.3331 85.0852 55.8388 85.0852C55.4297 85.0852 55.0661 84.9957 54.7479 84.8168C54.4297 84.6349 54.1797 84.3622 53.9979 83.9986C53.8161 83.6321 53.7251 83.1705 53.7251 82.6136V78.4545H54.7308V82.5455C54.7308 83.0227 54.8643 83.4034 55.1314 83.6875C55.4013 83.9716 55.745 84.1136 56.1626 84.1136C56.4126 84.1136 56.6669 84.0497 56.9254 83.9219C57.1868 83.794 57.4055 83.598 57.5817 83.3338C57.7607 83.0696 57.8501 82.733 57.8501 82.3239ZM63.5444 78.4545V79.3068H60.1523V78.4545H63.5444ZM61.141 76.8864H62.1467V83.125C62.1467 83.4091 62.1879 83.6222 62.2702 83.7642C62.3555 83.9034 62.4634 83.9972 62.5941 84.0455C62.7276 84.0909 62.8683 84.1136 63.016 84.1136C63.1268 84.1136 63.2177 84.108 63.2887 84.0966C63.3597 84.0824 63.4165 84.071 63.4592 84.0625L63.6637 84.9659C63.5955 84.9915 63.5004 85.017 63.3782 85.0426C63.256 85.071 63.1012 85.0852 62.9137 85.0852C62.6296 85.0852 62.3512 85.0241 62.0785 84.902C61.8086 84.7798 61.5842 84.5938 61.4052 84.3438C61.229 84.0938 61.141 83.7784 61.141 83.3977V76.8864ZM67.9038 78.4545V79.3068H64.5117V78.4545H67.9038ZM65.5004 76.8864H66.506V83.125C66.506 83.4091 66.5472 83.6222 66.6296 83.7642C66.7148 83.9034 66.8228 83.9972 66.9535 84.0455C67.087 84.0909 67.2276 84.1136 67.3754 84.1136C67.4862 84.1136 67.5771 84.108 67.6481 84.0966C67.7191 84.0824 67.7759 84.071 67.8185 84.0625L68.0231 84.9659C67.9549 84.9915 67.8597 85.017 67.7376 85.0426C67.6154 85.071 67.4606 85.0852 67.2731 85.0852C66.989 85.0852 66.7106 85.0241 66.4379 84.902C66.168 84.7798 65.9435 84.5938 65.7646 84.3438C65.5884 84.0938 65.5004 83.7784 65.5004 83.3977V76.8864ZM72.0053 85.1364C71.4144 85.1364 70.896 84.9957 70.4499 84.7145C70.0067 84.4332 69.6602 84.0398 69.4102 83.5341C69.163 83.0284 69.0394 82.4375 69.0394 81.7614C69.0394 81.0795 69.163 80.4844 69.4102 79.9759C69.6602 79.4673 70.0067 79.0724 70.4499 78.7912C70.896 78.5099 71.4144 78.3693 72.0053 78.3693C72.5962 78.3693 73.1133 78.5099 73.5565 78.7912C74.0025 79.0724 74.3491 79.4673 74.5962 79.9759C74.8462 80.4844 74.9712 81.0795 74.9712 81.7614C74.9712 82.4375 74.8462 83.0284 74.5962 83.5341C74.3491 84.0398 74.0025 84.4332 73.5565 84.7145C73.1133 84.9957 72.5962 85.1364 72.0053 85.1364ZM72.0053 84.233C72.4542 84.233 72.8235 84.1179 73.1133 83.8878C73.4031 83.6577 73.6175 83.3551 73.7567 82.9801C73.896 82.6051 73.9656 82.1989 73.9656 81.7614C73.9656 81.3239 73.896 80.9162 73.7567 80.5384C73.6175 80.1605 73.4031 79.8551 73.1133 79.6222C72.8235 79.3892 72.4542 79.2727 72.0053 79.2727C71.5565 79.2727 71.1871 79.3892 70.8974 79.6222C70.6076 79.8551 70.3931 80.1605 70.2539 80.5384C70.1147 80.9162 70.0451 81.3239 70.0451 81.7614C70.0451 82.1989 70.1147 82.6051 70.2539 82.9801C70.3931 83.3551 70.6076 83.6577 70.8974 83.8878C71.1871 84.1179 71.5565 84.233 72.0053 84.233ZM77.5121 81.0625V85H76.5064V78.4545H77.478V79.4773H77.5632C77.7166 79.1449 77.9496 78.8778 78.2621 78.6761C78.5746 78.4716 78.978 78.3693 79.4723 78.3693C79.9155 78.3693 80.3033 78.4602 80.6357 78.642C80.968 78.821 81.2266 79.0938 81.4112 79.4602C81.5959 79.8239 81.6882 80.2841 81.6882 80.8409V85H80.6825V80.9091C80.6825 80.3949 80.549 79.9943 80.282 79.7074C80.0149 79.4176 79.6484 79.2727 79.1825 79.2727C78.8615 79.2727 78.5746 79.3423 78.3217 79.4815C78.0717 79.6207 77.8743 79.8239 77.7294 80.0909C77.5845 80.358 77.5121 80.6818 77.5121 81.0625ZM84.2589 85.0682C84.0487 85.0682 83.8683 84.9929 83.7177 84.8423C83.5671 84.6918 83.4918 84.5114 83.4918 84.3011C83.4918 84.0909 83.5671 83.9105 83.7177 83.7599C83.8683 83.6094 84.0487 83.5341 84.2589 83.5341C84.4691 83.5341 84.6495 83.6094 84.8001 83.7599C84.9506 83.9105 85.0259 84.0909 85.0259 84.3011C85.0259 84.4403 84.9904 84.5682 84.9194 84.6847C84.8512 84.8011 84.7589 84.8949 84.6424 84.9659C84.5288 85.0341 84.4009 85.0682 84.2589 85.0682ZM86.8306 78.4545H87.8363V85.4773C87.8363 85.8807 87.7667 86.2301 87.6275 86.5256C87.4911 86.821 87.2837 87.0497 87.0053 87.2116C86.7298 87.3736 86.3817 87.4545 85.9613 87.4545C85.9272 87.4545 85.8931 87.4545 85.859 87.4545C85.8249 87.4545 85.7908 87.4545 85.7567 87.4545V86.517C85.7908 86.517 85.8221 86.517 85.8505 86.517C85.8789 86.517 85.9102 86.517 85.9442 86.517C86.2511 86.517 86.4755 86.4261 86.6175 86.2443C86.7596 86.0653 86.8306 85.8097 86.8306 85.4773V78.4545ZM87.3249 77.3636C87.1289 77.3636 86.9599 77.2969 86.8178 77.1634C86.6786 77.0298 86.609 76.8693 86.609 76.6818C86.609 76.4943 86.6786 76.3338 86.8178 76.2003C86.9599 76.0668 87.1289 76 87.3249 76C87.521 76 87.6886 76.0668 87.8278 76.2003C87.9698 76.3338 88.0408 76.4943 88.0408 76.6818C88.0408 76.8693 87.9698 77.0298 87.8278 77.1634C87.6886 77.2969 87.521 77.3636 87.3249 77.3636ZM94.3146 79.9205L93.4112 80.1761C93.3544 80.0256 93.2706 79.8793 93.1598 79.7372C93.0518 79.5923 92.9041 79.473 92.7166 79.3793C92.5291 79.2855 92.2891 79.2386 91.9964 79.2386C91.5959 79.2386 91.2621 79.331 90.995 79.5156C90.7308 79.6974 90.5987 79.929 90.5987 80.2102C90.5987 80.4602 90.6896 80.6577 90.8714 80.8026C91.0533 80.9474 91.3374 81.0682 91.7237 81.1648L92.6953 81.4034C93.2805 81.5455 93.7166 81.7628 94.0036 82.0554C94.2905 82.3452 94.4339 82.7187 94.4339 83.1761C94.4339 83.5511 94.326 83.8864 94.1101 84.1818C93.897 84.4773 93.5987 84.7102 93.2152 84.8807C92.8317 85.0511 92.3857 85.1364 91.8771 85.1364C91.2095 85.1364 90.657 84.9915 90.2195 84.7017C89.782 84.4119 89.505 83.9886 89.3885 83.4318L90.343 83.1932C90.4339 83.5455 90.6058 83.8097 90.8587 83.9858C91.1143 84.1619 91.4482 84.25 91.8601 84.25C92.3288 84.25 92.701 84.1506 92.9766 83.9517C93.255 83.75 93.3942 83.5085 93.3942 83.2273C93.3942 83 93.3146 82.8097 93.1555 82.6562C92.9964 82.5 92.7521 82.3835 92.4226 82.3068L91.3317 82.0511C90.7322 81.9091 90.2919 81.6889 90.0107 81.3906C89.7322 81.0895 89.593 80.7131 89.593 80.2614C89.593 79.892 89.6967 79.5653 89.9041 79.2812C90.1143 78.9972 90.3999 78.7741 90.7607 78.6122C91.1243 78.4503 91.5362 78.3693 91.9964 78.3693C92.6442 78.3693 93.1527 78.5114 93.522 78.7955C93.8942 79.0795 94.1584 79.4545 94.3146 79.9205ZM96.6978 78.4545L98.266 81.1307L99.8342 78.4545H100.993L98.8796 81.7273L100.993 85H99.8342L98.266 82.4602L96.6978 85H95.5387L97.6183 81.7273L95.5387 78.4545H96.6978Z" fill="#EEEEEE"/>
<path d="M36.0568 66V57.2727H37.0625V60.4943H37.1477C37.2216 60.3807 37.3239 60.2358 37.4545 60.0597C37.5881 59.8807 37.7784 59.7216 38.0256 59.5824C38.2756 59.4403 38.6136 59.3693 39.0398 59.3693C39.5909 59.3693 40.0767 59.5071 40.4972 59.7827C40.9176 60.0582 41.2457 60.4489 41.4815 60.9545C41.7173 61.4602 41.8352 62.0568 41.8352 62.7443C41.8352 63.4375 41.7173 64.0384 41.4815 64.5469C41.2457 65.0526 40.919 65.4446 40.5014 65.723C40.0838 65.9986 39.6023 66.1364 39.0568 66.1364C38.6364 66.1364 38.2997 66.0668 38.0469 65.9276C37.794 65.7855 37.5994 65.625 37.4631 65.446C37.3267 65.2642 37.2216 65.1136 37.1477 64.9943H37.0284V66H36.0568ZM37.0455 62.7273C37.0455 63.2216 37.1179 63.6577 37.2628 64.0355C37.4077 64.4105 37.6193 64.7045 37.8977 64.9176C38.1761 65.1278 38.517 65.233 38.9205 65.233C39.3409 65.233 39.6918 65.1222 39.973 64.9006C40.2571 64.6761 40.4702 64.375 40.6122 63.9972C40.7571 63.6165 40.8295 63.1932 40.8295 62.7273C40.8295 62.267 40.7585 61.8523 40.6165 61.483C40.4773 61.1108 40.2656 60.8168 39.9815 60.6009C39.7003 60.3821 39.3466 60.2727 38.9205 60.2727C38.5114 60.2727 38.1676 60.3764 37.8892 60.5838C37.6108 60.7884 37.4006 61.0753 37.2585 61.4446C37.1165 61.8111 37.0455 62.2386 37.0455 62.7273ZM47.4986 63.3239V59.4545H48.5043V66H47.4986V64.892H47.4304C47.277 65.2244 47.0384 65.5071 46.7145 65.7401C46.3906 65.9702 45.9815 66.0852 45.4872 66.0852C45.0781 66.0852 44.7145 65.9957 44.3963 65.8168C44.0781 65.6349 43.8281 65.3622 43.6463 64.9986C43.4645 64.6321 43.3736 64.1705 43.3736 63.6136V59.4545H44.3793V63.5455C44.3793 64.0227 44.5128 64.4034 44.7798 64.6875C45.0497 64.9716 45.3935 65.1136 45.8111 65.1136C46.0611 65.1136 46.3153 65.0497 46.5739 64.9219C46.8352 64.794 47.054 64.598 47.2301 64.3338C47.4091 64.0696 47.4986 63.733 47.4986 63.3239ZM53.1928 59.4545V60.3068H49.8008V59.4545H53.1928ZM50.7894 57.8864H51.7951V64.125C51.7951 64.4091 51.8363 64.6222 51.9187 64.7642C52.0039 64.9034 52.1119 64.9972 52.2425 65.0455C52.3761 65.0909 52.5167 65.1136 52.6644 65.1136C52.7752 65.1136 52.8661 65.108 52.9371 65.0966C53.0082 65.0824 53.065 65.071 53.1076 65.0625L53.3121 65.9659C53.244 65.9915 53.1488 66.017 53.0266 66.0426C52.9045 66.071 52.7496 66.0852 52.5621 66.0852C52.2781 66.0852 51.9996 66.0241 51.7269 65.902C51.457 65.7798 51.2326 65.5938 51.0536 65.3438C50.8775 65.0938 50.7894 64.7784 50.7894 64.3977V57.8864ZM57.5522 59.4545V60.3068H54.1602V59.4545H57.5522ZM55.1488 57.8864H56.1545V64.125C56.1545 64.4091 56.1957 64.6222 56.2781 64.7642C56.3633 64.9034 56.4712 64.9972 56.6019 65.0455C56.7354 65.0909 56.8761 65.1136 57.0238 65.1136C57.1346 65.1136 57.2255 65.108 57.2965 65.0966C57.3675 65.0824 57.4244 65.071 57.467 65.0625L57.6715 65.9659C57.6033 65.9915 57.5082 66.017 57.386 66.0426C57.2638 66.071 57.109 66.0852 56.9215 66.0852C56.6374 66.0852 56.359 66.0241 56.0863 65.902C55.8164 65.7798 55.592 65.5938 55.413 65.3438C55.2369 65.0938 55.1488 64.7784 55.1488 64.3977V57.8864ZM61.6538 66.1364C61.0629 66.1364 60.5444 65.9957 60.0984 65.7145C59.6552 65.4332 59.3086 65.0398 59.0586 64.5341C58.8114 64.0284 58.6879 63.4375 58.6879 62.7614C58.6879 62.0795 58.8114 61.4844 59.0586 60.9759C59.3086 60.4673 59.6552 60.0724 60.0984 59.7912C60.5444 59.5099 61.0629 59.3693 61.6538 59.3693C62.2447 59.3693 62.7617 59.5099 63.2049 59.7912C63.6509 60.0724 63.9975 60.4673 64.2447 60.9759C64.4947 61.4844 64.6197 62.0795 64.6197 62.7614C64.6197 63.4375 64.4947 64.0284 64.2447 64.5341C63.9975 65.0398 63.6509 65.4332 63.2049 65.7145C62.7617 65.9957 62.2447 66.1364 61.6538 66.1364ZM61.6538 65.233C62.1026 65.233 62.4719 65.1179 62.7617 64.8878C63.0515 64.6577 63.266 64.3551 63.4052 63.9801C63.5444 63.6051 63.614 63.1989 63.614 62.7614C63.614 62.3239 63.5444 61.9162 63.4052 61.5384C63.266 61.1605 63.0515 60.8551 62.7617 60.6222C62.4719 60.3892 62.1026 60.2727 61.6538 60.2727C61.2049 60.2727 60.8356 60.3892 60.5458 60.6222C60.256 60.8551 60.0415 61.1605 59.9023 61.5384C59.7631 61.9162 59.6935 62.3239 59.6935 62.7614C59.6935 63.1989 59.7631 63.6051 59.9023 63.9801C60.0415 64.3551 60.256 64.6577 60.5458 64.8878C60.8356 65.1179 61.2049 65.233 61.6538 65.233ZM67.1605 62.0625V66H66.1548V59.4545H67.1264V60.4773H67.2116C67.3651 60.1449 67.598 59.8778 67.9105 59.6761C68.223 59.4716 68.6264 59.3693 69.1207 59.3693C69.5639 59.3693 69.9517 59.4602 70.2841 59.642C70.6165 59.821 70.875 60.0938 71.0597 60.4602C71.2443 60.8239 71.3366 61.2841 71.3366 61.8409V66H70.331V61.9091C70.331 61.3949 70.1974 60.9943 69.9304 60.7074C69.6634 60.4176 69.2969 60.2727 68.831 60.2727C68.5099 60.2727 68.223 60.3423 67.9702 60.4815C67.7202 60.6207 67.5227 60.8239 67.3778 61.0909C67.233 61.358 67.1605 61.6818 67.1605 62.0625Z" fill="#EEEEEE"/>
<path d="M29.5795 47.1364C28.9659 47.1364 28.4375 46.9915 27.9943 46.7017C27.5511 46.4119 27.2102 46.0128 26.9716 45.5043C26.733 44.9957 26.6136 44.4148 26.6136 43.7614C26.6136 43.0966 26.7358 42.5099 26.9801 42.0014C27.2273 41.4901 27.571 41.0909 28.0114 40.804C28.4545 40.5142 28.9716 40.3693 29.5625 40.3693C30.0227 40.3693 30.4375 40.4545 30.8068 40.625C31.1761 40.7955 31.4787 41.0341 31.7145 41.3409C31.9503 41.6477 32.0966 42.0057 32.1534 42.4148H31.1477C31.071 42.1165 30.9006 41.8523 30.6364 41.6222C30.375 41.3892 30.0227 41.2727 29.5795 41.2727C29.1875 41.2727 28.8438 41.375 28.5483 41.5795C28.2557 41.7812 28.027 42.0668 27.8622 42.4361C27.7003 42.8026 27.6193 43.233 27.6193 43.7273C27.6193 44.233 27.6989 44.6733 27.858 45.0483C28.0199 45.4233 28.2472 45.7145 28.5398 45.9219C28.8352 46.1293 29.1818 46.233 29.5795 46.233C29.8409 46.233 30.0781 46.1875 30.2912 46.0966C30.5043 46.0057 30.6847 45.875 30.8324 45.7045C30.9801 45.5341 31.0852 45.3295 31.1477 45.0909H32.1534C32.0966 45.4773 31.956 45.8253 31.7315 46.1349C31.5099 46.4418 31.2159 46.6861 30.8494 46.8679C30.4858 47.0469 30.0625 47.1364 29.5795 47.1364ZM36.2827 47.1364C35.6918 47.1364 35.1733 46.9957 34.7273 46.7145C34.2841 46.4332 33.9375 46.0398 33.6875 45.5341C33.4403 45.0284 33.3168 44.4375 33.3168 43.7614C33.3168 43.0795 33.4403 42.4844 33.6875 41.9759C33.9375 41.4673 34.2841 41.0724 34.7273 40.7912C35.1733 40.5099 35.6918 40.3693 36.2827 40.3693C36.8736 40.3693 37.3906 40.5099 37.8338 40.7912C38.2798 41.0724 38.6264 41.4673 38.8736 41.9759C39.1236 42.4844 39.2486 43.0795 39.2486 43.7614C39.2486 44.4375 39.1236 45.0284 38.8736 45.5341C38.6264 46.0398 38.2798 46.4332 37.8338 46.7145C37.3906 46.9957 36.8736 47.1364 36.2827 47.1364ZM36.2827 46.233C36.7315 46.233 37.1009 46.1179 37.3906 45.8878C37.6804 45.6577 37.8949 45.3551 38.0341 44.9801C38.1733 44.6051 38.2429 44.1989 38.2429 43.7614C38.2429 43.3239 38.1733 42.9162 38.0341 42.5384C37.8949 42.1605 37.6804 41.8551 37.3906 41.6222C37.1009 41.3892 36.7315 41.2727 36.2827 41.2727C35.8338 41.2727 35.4645 41.3892 35.1747 41.6222C34.8849 41.8551 34.6705 42.1605 34.5312 42.5384C34.392 42.9162 34.3224 43.3239 34.3224 43.7614C34.3224 44.1989 34.392 44.6051 34.5312 44.9801C34.6705 45.3551 34.8849 45.6577 35.1747 45.8878C35.4645 46.1179 35.8338 46.233 36.2827 46.233ZM40.7837 47V40.4545H41.7553V41.4773H41.8406C41.9769 41.1278 42.1971 40.8565 42.5011 40.6634C42.805 40.4673 43.1701 40.3693 43.5962 40.3693C44.0281 40.3693 44.3874 40.4673 44.6744 40.6634C44.9641 40.8565 45.19 41.1278 45.3519 41.4773H45.4201C45.5877 41.1392 45.8391 40.8707 46.1744 40.6719C46.5096 40.4702 46.9116 40.3693 47.3803 40.3693C47.9656 40.3693 48.4442 40.5526 48.8164 40.919C49.1886 41.2827 49.3746 41.8494 49.3746 42.6193V47H48.369V42.6193C48.369 42.1364 48.2369 41.7912 47.9727 41.5838C47.7085 41.3764 47.3974 41.2727 47.0394 41.2727C46.5792 41.2727 46.2227 41.4119 45.9698 41.6903C45.717 41.9659 45.5906 42.3153 45.5906 42.7386V47H44.5678V42.517C44.5678 42.1449 44.4471 41.8452 44.2056 41.6179C43.9641 41.3878 43.6531 41.2727 43.2724 41.2727C43.011 41.2727 42.7667 41.3423 42.5394 41.4815C42.315 41.6207 42.1332 41.8139 41.994 42.0611C41.8576 42.3054 41.7894 42.5881 41.7894 42.9091V47H40.7837ZM51.2134 49.4545V40.4545H52.185V41.4943H52.3043C52.3782 41.3807 52.4805 41.2358 52.6112 41.0597C52.7447 40.8807 52.935 40.7216 53.1822 40.5824C53.4322 40.4403 53.7702 40.3693 54.1964 40.3693C54.7475 40.3693 55.2333 40.5071 55.6538 40.7827C56.0742 41.0582 56.4023 41.4489 56.6381 41.9545C56.8739 42.4602 56.9918 43.0568 56.9918 43.7443C56.9918 44.4375 56.8739 45.0384 56.6381 45.5469C56.4023 46.0526 56.0756 46.4446 55.658 46.723C55.2404 46.9986 54.7589 47.1364 54.2134 47.1364C53.793 47.1364 53.4563 47.0668 53.2035 46.9276C52.9506 46.7855 52.756 46.625 52.6197 46.446C52.4833 46.2642 52.3782 46.1136 52.3043 45.9943H52.2191V49.4545H51.2134ZM52.2021 43.7273C52.2021 44.2216 52.2745 44.6577 52.4194 45.0355C52.5643 45.4105 52.7759 45.7045 53.0543 45.9176C53.3327 46.1278 53.6737 46.233 54.0771 46.233C54.4975 46.233 54.8484 46.1222 55.1296 45.9006C55.4137 45.6761 55.6268 45.375 55.7688 44.9972C55.9137 44.6165 55.9862 44.1932 55.9862 43.7273C55.9862 43.267 55.9151 42.8523 55.7731 42.483C55.6339 42.1108 55.4222 41.8168 55.1381 41.6009C54.8569 41.3821 54.5032 41.2727 54.0771 41.2727C53.668 41.2727 53.3242 41.3764 53.0458 41.5838C52.7674 41.7884 52.5572 42.0753 52.4151 42.4446C52.2731 42.8111 52.2021 43.2386 52.2021 43.7273ZM61.185 47.1364C60.5941 47.1364 60.0756 46.9957 59.6296 46.7145C59.1864 46.4332 58.8398 46.0398 58.5898 45.5341C58.3427 45.0284 58.2191 44.4375 58.2191 43.7614C58.2191 43.0795 58.3427 42.4844 58.5898 41.9759C58.8398 41.4673 59.1864 41.0724 59.6296 40.7912C60.0756 40.5099 60.5941 40.3693 61.185 40.3693C61.7759 40.3693 62.293 40.5099 62.7362 40.7912C63.1822 41.0724 63.5288 41.4673 63.7759 41.9759C64.0259 42.4844 64.1509 43.0795 64.1509 43.7614C64.1509 44.4375 64.0259 45.0284 63.7759 45.5341C63.5288 46.0398 63.1822 46.4332 62.7362 46.7145C62.293 46.9957 61.7759 47.1364 61.185 47.1364ZM61.185 46.233C61.6339 46.233 62.0032 46.1179 62.293 45.8878C62.5827 45.6577 62.7972 45.3551 62.9364 44.9801C63.0756 44.6051 63.1452 44.1989 63.1452 43.7614C63.1452 43.3239 63.0756 42.9162 62.9364 42.5384C62.7972 42.1605 62.5827 41.8551 62.293 41.6222C62.0032 41.3892 61.6339 41.2727 61.185 41.2727C60.7362 41.2727 60.3668 41.3892 60.0771 41.6222C59.7873 41.8551 59.5728 42.1605 59.4336 42.5384C59.2944 42.9162 59.2248 43.3239 59.2248 43.7614C59.2248 44.1989 59.2944 44.6051 59.4336 44.9801C59.5728 45.3551 59.7873 45.6577 60.0771 45.8878C60.3668 46.1179 60.7362 46.233 61.185 46.233ZM66.6918 43.0625V47H65.6861V40.4545H66.6577V41.4773H66.7429C66.8963 41.1449 67.1293 40.8778 67.4418 40.6761C67.7543 40.4716 68.1577 40.3693 68.652 40.3693C69.0952 40.3693 69.483 40.4602 69.8153 40.642C70.1477 40.821 70.4063 41.0938 70.5909 41.4602C70.7756 41.8239 70.8679 42.2841 70.8679 42.8409V47H69.8622V42.9091C69.8622 42.3949 69.7287 41.9943 69.4616 41.7074C69.1946 41.4176 68.8281 41.2727 68.3622 41.2727C68.0412 41.2727 67.7543 41.3423 67.5014 41.4815C67.2514 41.6207 67.054 41.8239 66.9091 42.0909C66.7642 42.358 66.6918 42.6818 66.6918 43.0625ZM75.4499 47.1364C74.8192 47.1364 74.2752 46.9972 73.8178 46.7188C73.3633 46.4375 73.0124 46.0455 72.7653 45.5426C72.521 45.0369 72.3988 44.4489 72.3988 43.7784C72.3988 43.108 72.521 42.517 72.7653 42.0057C73.0124 41.4915 73.3562 41.0909 73.7965 40.804C74.2397 40.5142 74.7567 40.3693 75.3477 40.3693C75.6886 40.3693 76.0252 40.4261 76.3576 40.5398C76.69 40.6534 76.9925 40.8381 77.2653 41.0938C77.538 41.3466 77.7553 41.6818 77.9173 42.0994C78.0792 42.517 78.1602 43.0312 78.1602 43.642V44.0682H73.1147V43.1989H77.1374C77.1374 42.8295 77.0636 42.5 76.9158 42.2102C76.771 41.9205 76.5636 41.6918 76.2937 41.5241C76.0266 41.3565 75.7113 41.2727 75.3477 41.2727C74.9471 41.2727 74.6005 41.3722 74.3079 41.571C74.0181 41.767 73.7951 42.0227 73.6388 42.3381C73.4826 42.6534 73.4045 42.9915 73.4045 43.3523V43.9318C73.4045 44.4261 73.4897 44.8452 73.6602 45.1889C73.8335 45.5298 74.0735 45.7898 74.3803 45.9688C74.6871 46.1449 75.0437 46.233 75.4499 46.233C75.7141 46.233 75.9528 46.196 76.1658 46.1222C76.3817 46.0455 76.5678 45.9318 76.7241 45.7812C76.8803 45.6278 77.0011 45.4375 77.0863 45.2102L78.0579 45.483C77.9556 45.8125 77.7837 46.1023 77.5423 46.3523C77.3008 46.5994 77.0025 46.7926 76.6474 46.9318C76.2923 47.0682 75.8931 47.1364 75.4499 47.1364ZM80.6957 43.0625V47H79.69V40.4545H80.6616V41.4773H80.7468C80.9002 41.1449 81.1332 40.8778 81.4457 40.6761C81.7582 40.4716 82.1616 40.3693 82.6559 40.3693C83.0991 40.3693 83.4869 40.4602 83.8192 40.642C84.1516 40.821 84.4102 41.0938 84.5948 41.4602C84.7795 41.8239 84.8718 42.2841 84.8718 42.8409V47H83.8661V42.9091C83.8661 42.3949 83.7326 41.9943 83.4656 41.7074C83.1985 41.4176 82.832 41.2727 82.3661 41.2727C82.0451 41.2727 81.7582 41.3423 81.5053 41.4815C81.2553 41.6207 81.0579 41.8239 80.913 42.0909C80.7681 42.358 80.6957 42.6818 80.6957 43.0625ZM89.5561 40.4545V41.3068H86.1641V40.4545H89.5561ZM87.1527 38.8864H88.1584V45.125C88.1584 45.4091 88.1996 45.6222 88.282 45.7642C88.3672 45.9034 88.4751 45.9972 88.6058 46.0455C88.7393 46.0909 88.88 46.1136 89.0277 46.1136C89.1385 46.1136 89.2294 46.108 89.3004 46.0966C89.3714 46.0824 89.4283 46.071 89.4709 46.0625L89.6754 46.9659C89.6072 46.9915 89.5121 47.017 89.3899 47.0426C89.2678 47.071 89.1129 47.0852 88.9254 47.0852C88.6413 47.0852 88.3629 47.0241 88.0902 46.902C87.8203 46.7798 87.5959 46.5938 87.4169 46.3438C87.2408 46.0938 87.1527 45.7784 87.1527 45.3977V38.8864ZM95.5881 41.9205L94.6847 42.1761C94.6278 42.0256 94.544 41.8793 94.4332 41.7372C94.3253 41.5923 94.1776 41.473 93.9901 41.3793C93.8026 41.2855 93.5625 41.2386 93.2699 41.2386C92.8693 41.2386 92.5355 41.331 92.2685 41.5156C92.0043 41.6974 91.8722 41.929 91.8722 42.2102C91.8722 42.4602 91.9631 42.6577 92.1449 42.8026C92.3267 42.9474 92.6108 43.0682 92.9972 43.1648L93.9688 43.4034C94.554 43.5455 94.9901 43.7628 95.277 44.0554C95.5639 44.3452 95.7074 44.7187 95.7074 45.1761C95.7074 45.5511 95.5994 45.8864 95.3835 46.1818C95.1705 46.4773 94.8722 46.7102 94.4886 46.8807C94.1051 47.0511 93.6591 47.1364 93.1506 47.1364C92.483 47.1364 91.9304 46.9915 91.4929 46.7017C91.0554 46.4119 90.7784 45.9886 90.6619 45.4318L91.6165 45.1932C91.7074 45.5455 91.8793 45.8097 92.1321 45.9858C92.3878 46.1619 92.7216 46.25 93.1335 46.25C93.6023 46.25 93.9744 46.1506 94.25 45.9517C94.5284 45.75 94.6676 45.5085 94.6676 45.2273C94.6676 45 94.5881 44.8097 94.429 44.6562C94.2699 44.5 94.0256 44.3835 93.696 44.3068L92.6051 44.0511C92.0057 43.9091 91.5653 43.6889 91.2841 43.3906C91.0057 43.0895 90.8665 42.7131 90.8665 42.2614C90.8665 41.892 90.9702 41.5653 91.1776 41.2812C91.3878 40.9972 91.6733 40.7741 92.0341 40.6122C92.3977 40.4503 92.8097 40.3693 93.2699 40.3693C93.9176 40.3693 94.4261 40.5114 94.7955 40.7955C95.1676 41.0795 95.4318 41.4545 95.5881 41.9205Z" fill="#EEEEEE"/>
<path d="M46.0568 104V95.2727H47.0625V98.4943H47.1477C47.2216 98.3807 47.3239 98.2358 47.4545 98.0597C47.5881 97.8807 47.7784 97.7216 48.0256 97.5824C48.2756 97.4403 48.6136 97.3693 49.0398 97.3693C49.5909 97.3693 50.0767 97.5071 50.4972 97.7827C50.9176 98.0582 51.2457 98.4489 51.4815 98.9545C51.7173 99.4602 51.8352 100.057 51.8352 100.744C51.8352 101.438 51.7173 102.038 51.4815 102.547C51.2457 103.053 50.919 103.445 50.5014 103.723C50.0838 103.999 49.6023 104.136 49.0568 104.136C48.6364 104.136 48.2997 104.067 48.0469 103.928C47.794 103.786 47.5994 103.625 47.4631 103.446C47.3267 103.264 47.2216 103.114 47.1477 102.994H47.0284V104H46.0568ZM47.0455 100.727C47.0455 101.222 47.1179 101.658 47.2628 102.036C47.4077 102.411 47.6193 102.705 47.8977 102.918C48.1761 103.128 48.517 103.233 48.9205 103.233C49.3409 103.233 49.6918 103.122 49.973 102.901C50.2571 102.676 50.4702 102.375 50.6122 101.997C50.7571 101.616 50.8295 101.193 50.8295 100.727C50.8295 100.267 50.7585 99.8523 50.6165 99.483C50.4773 99.1108 50.2656 98.8168 49.9815 98.6009C49.7003 98.3821 49.3466 98.2727 48.9205 98.2727C48.5114 98.2727 48.1676 98.3764 47.8892 98.5838C47.6108 98.7884 47.4006 99.0753 47.2585 99.4446C47.1165 99.8111 47.0455 100.239 47.0455 100.727ZM57.4986 101.324V97.4545H58.5043V104H57.4986V102.892H57.4304C57.277 103.224 57.0384 103.507 56.7145 103.74C56.3906 103.97 55.9815 104.085 55.4872 104.085C55.0781 104.085 54.7145 103.996 54.3963 103.817C54.0781 103.635 53.8281 103.362 53.6463 102.999C53.4645 102.632 53.3736 102.17 53.3736 101.614V97.4545H54.3793V101.545C54.3793 102.023 54.5128 102.403 54.7798 102.688C55.0497 102.972 55.3935 103.114 55.8111 103.114C56.0611 103.114 56.3153 103.05 56.5739 102.922C56.8352 102.794 57.054 102.598 57.2301 102.334C57.4091 102.07 57.4986 101.733 57.4986 101.324ZM63.1928 97.4545V98.3068H59.8008V97.4545H63.1928ZM60.7894 95.8864H61.7951V102.125C61.7951 102.409 61.8363 102.622 61.9187 102.764C62.0039 102.903 62.1119 102.997 62.2425 103.045C62.3761 103.091 62.5167 103.114 62.6644 103.114C62.7752 103.114 62.8661 103.108 62.9371 103.097C63.0082 103.082 63.065 103.071 63.1076 103.062L63.3121 103.966C63.244 103.991 63.1488 104.017 63.0266 104.043C62.9045 104.071 62.7496 104.085 62.5621 104.085C62.2781 104.085 61.9996 104.024 61.7269 103.902C61.457 103.78 61.2326 103.594 61.0536 103.344C60.8775 103.094 60.7894 102.778 60.7894 102.398V95.8864ZM67.5522 97.4545V98.3068H64.1602V97.4545H67.5522ZM65.1488 95.8864H66.1545V102.125C66.1545 102.409 66.1957 102.622 66.2781 102.764C66.3633 102.903 66.4712 102.997 66.6019 103.045C66.7354 103.091 66.8761 103.114 67.0238 103.114C67.1346 103.114 67.2255 103.108 67.2965 103.097C67.3675 103.082 67.4244 103.071 67.467 103.062L67.6715 103.966C67.6033 103.991 67.5082 104.017 67.386 104.043C67.2638 104.071 67.109 104.085 66.9215 104.085C66.6374 104.085 66.359 104.024 66.0863 103.902C65.8164 103.78 65.592 103.594 65.413 103.344C65.2369 103.094 65.1488 102.778 65.1488 102.398V95.8864ZM71.6538 104.136C71.0629 104.136 70.5444 103.996 70.0984 103.714C69.6552 103.433 69.3086 103.04 69.0586 102.534C68.8114 102.028 68.6879 101.437 68.6879 100.761C68.6879 100.08 68.8114 99.4844 69.0586 98.9759C69.3086 98.4673 69.6552 98.0724 70.0984 97.7912C70.5444 97.5099 71.0629 97.3693 71.6538 97.3693C72.2447 97.3693 72.7617 97.5099 73.2049 97.7912C73.6509 98.0724 73.9975 98.4673 74.2447 98.9759C74.4947 99.4844 74.6197 100.08 74.6197 100.761C74.6197 101.437 74.4947 102.028 74.2447 102.534C73.9975 103.04 73.6509 103.433 73.2049 103.714C72.7617 103.996 72.2447 104.136 71.6538 104.136ZM71.6538 103.233C72.1026 103.233 72.4719 103.118 72.7617 102.888C73.0515 102.658 73.266 102.355 73.4052 101.98C73.5444 101.605 73.614 101.199 73.614 100.761C73.614 100.324 73.5444 99.9162 73.4052 99.5384C73.266 99.1605 73.0515 98.8551 72.7617 98.6222C72.4719 98.3892 72.1026 98.2727 71.6538 98.2727C71.2049 98.2727 70.8356 98.3892 70.5458 98.6222C70.256 98.8551 70.0415 99.1605 69.9023 99.5384C69.7631 99.9162 69.6935 100.324 69.6935 100.761C69.6935 101.199 69.7631 101.605 69.9023 101.98C70.0415 102.355 70.256 102.658 70.5458 102.888C70.8356 103.118 71.2049 103.233 71.6538 103.233ZM77.1605 100.062V104H76.1548V97.4545H77.1264V98.4773H77.2116C77.3651 98.1449 77.598 97.8778 77.9105 97.6761C78.223 97.4716 78.6264 97.3693 79.1207 97.3693C79.5639 97.3693 79.9517 97.4602 80.2841 97.642C80.6165 97.821 80.875 98.0938 81.0597 98.4602C81.2443 98.8239 81.3366 99.2841 81.3366 99.8409V104H80.331V99.9091C80.331 99.3949 80.1974 98.9943 79.9304 98.7074C79.6634 98.4176 79.2969 98.2727 78.831 98.2727C78.5099 98.2727 78.223 98.3423 77.9702 98.4815C77.7202 98.6207 77.5227 98.8239 77.3778 99.0909C77.233 99.358 77.1605 99.6818 77.1605 100.062ZM83.9073 104.068C83.6971 104.068 83.5167 103.993 83.3661 103.842C83.2156 103.692 83.1403 103.511 83.1403 103.301C83.1403 103.091 83.2156 102.911 83.3661 102.76C83.5167 102.609 83.6971 102.534 83.9073 102.534C84.1175 102.534 84.2979 102.609 84.4485 102.76C84.5991 102.911 84.6744 103.091 84.6744 103.301C84.6744 103.44 84.6388 103.568 84.5678 103.685C84.4996 103.801 84.4073 103.895 84.2908 103.966C84.1772 104.034 84.0494 104.068 83.9073 104.068ZM86.479 104V97.4545H87.4506V98.4773H87.5359C87.6722 98.1278 87.8924 97.8565 88.1964 97.6634C88.5004 97.4673 88.8654 97.3693 89.2915 97.3693C89.7234 97.3693 90.0827 97.4673 90.3697 97.6634C90.6594 97.8565 90.8853 98.1278 91.0472 98.4773H91.1154C91.283 98.1392 91.5344 97.8707 91.8697 97.6719C92.2049 97.4702 92.6069 97.3693 93.0756 97.3693C93.6609 97.3693 94.1396 97.5526 94.5117 97.919C94.8839 98.2827 95.07 98.8494 95.07 99.6193V104H94.0643V99.6193C94.0643 99.1364 93.9322 98.7912 93.668 98.5838C93.4038 98.3764 93.0927 98.2727 92.7347 98.2727C92.2745 98.2727 91.918 98.4119 91.6651 98.6903C91.4123 98.9659 91.2859 99.3153 91.2859 99.7386V104H90.2631V99.517C90.2631 99.1449 90.1424 98.8452 89.9009 98.6179C89.6594 98.3878 89.3484 98.2727 88.9677 98.2727C88.7063 98.2727 88.462 98.3423 88.2347 98.4815C88.0103 98.6207 87.8285 98.8139 87.6893 99.0611C87.5529 99.3054 87.4847 99.5881 87.4847 99.9091V104H86.479ZM99.5678 104.136C98.9769 104.136 98.4585 103.996 98.0124 103.714C97.5692 103.433 97.2227 103.04 96.9727 102.534C96.7255 102.028 96.6019 101.437 96.6019 100.761C96.6019 100.08 96.7255 99.4844 96.9727 98.9759C97.2227 98.4673 97.5692 98.0724 98.0124 97.7912C98.4585 97.5099 98.9769 97.3693 99.5678 97.3693C100.159 97.3693 100.676 97.5099 101.119 97.7912C101.565 98.0724 101.912 98.4673 102.159 98.9759C102.409 99.4844 102.534 100.08 102.534 100.761C102.534 101.437 102.409 102.028 102.159 102.534C101.912 103.04 101.565 103.433 101.119 103.714C100.676 103.996 100.159 104.136 99.5678 104.136ZM99.5678 103.233C100.017 103.233 100.386 103.118 100.676 102.888C100.966 102.658 101.18 102.355 101.319 101.98C101.458 101.605 101.528 101.199 101.528 100.761C101.528 100.324 101.458 99.9162 101.319 99.5384C101.18 99.1605 100.966 98.8551 100.676 98.6222C100.386 98.3892 100.017 98.2727 99.5678 98.2727C99.119 98.2727 98.7496 98.3892 98.4599 98.6222C98.1701 98.8551 97.9556 99.1605 97.8164 99.5384C97.6772 99.9162 97.6076 100.324 97.6076 100.761C97.6076 101.199 97.6772 101.605 97.8164 101.98C97.9556 102.355 98.1701 102.658 98.4599 102.888C98.7496 103.118 99.119 103.233 99.5678 103.233ZM106.54 104.136C105.995 104.136 105.513 103.999 105.096 103.723C104.678 103.445 104.352 103.053 104.116 102.547C103.88 102.038 103.762 101.438 103.762 100.744C103.762 100.057 103.88 99.4602 104.116 98.9545C104.352 98.4489 104.68 98.0582 105.1 97.7827C105.521 97.5071 106.006 97.3693 106.558 97.3693C106.984 97.3693 107.32 97.4403 107.567 97.5824C107.817 97.7216 108.008 97.8807 108.138 98.0597C108.272 98.2358 108.376 98.3807 108.45 98.4943H108.535V95.2727H109.54V104H108.569V102.994H108.45C108.376 103.114 108.271 103.264 108.134 103.446C107.998 103.625 107.803 103.786 107.55 103.928C107.298 104.067 106.961 104.136 106.54 104.136ZM106.677 103.233C107.08 103.233 107.421 103.128 107.7 102.918C107.978 102.705 108.19 102.411 108.335 102.036C108.479 101.658 108.552 101.222 108.552 100.727C108.552 100.239 108.481 99.8111 108.339 99.4446C108.197 99.0753 107.987 98.7884 107.708 98.5838C107.43 98.3764 107.086 98.2727 106.677 98.2727C106.251 98.2727 105.896 98.3821 105.612 98.6009C105.33 98.8168 105.119 99.1108 104.977 99.483C104.837 99.8523 104.768 100.267 104.768 100.727C104.768 101.193 104.839 101.616 104.981 101.997C105.126 102.375 105.339 102.676 105.62 102.901C105.904 103.122 106.256 103.233 106.677 103.233ZM115.647 101.324V97.4545H116.653V104H115.647V102.892H115.579C115.425 103.224 115.187 103.507 114.863 103.74C114.539 103.97 114.13 104.085 113.636 104.085C113.227 104.085 112.863 103.996 112.545 103.817C112.227 103.635 111.977 103.362 111.795 102.999C111.613 102.632 111.522 102.17 111.522 101.614V97.4545H112.528V101.545C112.528 102.023 112.661 102.403 112.928 102.688C113.198 102.972 113.542 103.114 113.96 103.114C114.21 103.114 114.464 103.05 114.722 102.922C114.984 102.794 115.202 102.598 115.379 102.334C115.558 102.07 115.647 101.733 115.647 101.324ZM119.5 95.2727V104H118.495V95.2727H119.5ZM124.087 104.136C123.456 104.136 122.912 103.997 122.455 103.719C122 103.438 121.649 103.045 121.402 102.543C121.158 102.037 121.036 101.449 121.036 100.778C121.036 100.108 121.158 99.517 121.402 99.0057C121.649 98.4915 121.993 98.0909 122.433 97.804C122.876 97.5142 123.393 97.3693 123.984 97.3693C124.325 97.3693 124.662 97.4261 124.994 97.5398C125.327 97.6534 125.629 97.8381 125.902 98.0938C126.175 98.3466 126.392 98.6818 126.554 99.0994C126.716 99.517 126.797 100.031 126.797 100.642V101.068H121.751V100.199H125.774C125.774 99.8295 125.7 99.5 125.553 99.2102C125.408 98.9205 125.2 98.6918 124.93 98.5241C124.663 98.3565 124.348 98.2727 123.984 98.2727C123.584 98.2727 123.237 98.3722 122.945 98.571C122.655 98.767 122.432 99.0227 122.276 99.3381C122.119 99.6534 122.041 99.9915 122.041 100.352V100.932C122.041 101.426 122.126 101.845 122.297 102.189C122.47 102.53 122.71 102.79 123.017 102.969C123.324 103.145 123.68 103.233 124.087 103.233C124.351 103.233 124.589 103.196 124.803 103.122C125.018 103.045 125.205 102.932 125.361 102.781C125.517 102.628 125.638 102.437 125.723 102.21L126.695 102.483C126.592 102.812 126.42 103.102 126.179 103.352C125.938 103.599 125.639 103.793 125.284 103.932C124.929 104.068 124.53 104.136 124.087 104.136ZM129.06 104.068C128.849 104.068 128.669 103.993 128.518 103.842C128.368 103.692 128.293 103.511 128.293 103.301C128.293 103.091 128.368 102.911 128.518 102.76C128.669 102.609 128.849 102.534 129.06 102.534C129.27 102.534 129.45 102.609 129.601 102.76C129.751 102.911 129.827 103.091 129.827 103.301C129.827 103.44 129.791 103.568 129.72 103.685C129.652 103.801 129.56 103.895 129.443 103.966C129.33 104.034 129.202 104.068 129.06 104.068ZM134.29 104.136C133.677 104.136 133.148 103.991 132.705 103.702C132.262 103.412 131.921 103.013 131.683 102.504C131.444 101.996 131.325 101.415 131.325 100.761C131.325 100.097 131.447 99.5099 131.691 99.0014C131.938 98.4901 132.282 98.0909 132.722 97.804C133.165 97.5142 133.683 97.3693 134.273 97.3693C134.734 97.3693 135.148 97.4545 135.518 97.625C135.887 97.7955 136.19 98.0341 136.425 98.3409C136.661 98.6477 136.808 99.0057 136.864 99.4148H135.859C135.782 99.1165 135.612 98.8523 135.347 98.6222C135.086 98.3892 134.734 98.2727 134.29 98.2727C133.898 98.2727 133.555 98.375 133.259 98.5795C132.967 98.7812 132.738 99.0668 132.573 99.4361C132.411 99.8026 132.33 100.233 132.33 100.727C132.33 101.233 132.41 101.673 132.569 102.048C132.731 102.423 132.958 102.714 133.251 102.922C133.546 103.129 133.893 103.233 134.29 103.233C134.552 103.233 134.789 103.188 135.002 103.097C135.215 103.006 135.396 102.875 135.543 102.705C135.691 102.534 135.796 102.33 135.859 102.091H136.864C136.808 102.477 136.667 102.825 136.442 103.135C136.221 103.442 135.927 103.686 135.56 103.868C135.197 104.047 134.773 104.136 134.29 104.136ZM142.971 98.9205L142.067 99.1761C142.011 99.0256 141.927 98.8793 141.816 98.7372C141.708 98.5923 141.56 98.473 141.373 98.3793C141.185 98.2855 140.945 98.2386 140.653 98.2386C140.252 98.2386 139.918 98.331 139.651 98.5156C139.387 98.6974 139.255 98.929 139.255 99.2102C139.255 99.4602 139.346 99.6577 139.528 99.8026C139.71 99.9474 139.994 100.068 140.38 100.165L141.352 100.403C141.937 100.545 142.373 100.763 142.66 101.055C142.947 101.345 143.09 101.719 143.09 102.176C143.09 102.551 142.982 102.886 142.766 103.182C142.553 103.477 142.255 103.71 141.871 103.881C141.488 104.051 141.042 104.136 140.533 104.136C139.866 104.136 139.313 103.991 138.876 103.702C138.438 103.412 138.161 102.989 138.045 102.432L138.999 102.193C139.09 102.545 139.262 102.81 139.515 102.986C139.771 103.162 140.104 103.25 140.516 103.25C140.985 103.25 141.357 103.151 141.633 102.952C141.911 102.75 142.05 102.509 142.05 102.227C142.05 102 141.971 101.81 141.812 101.656C141.653 101.5 141.408 101.384 141.079 101.307L139.988 101.051C139.388 100.909 138.948 100.689 138.667 100.391C138.388 100.089 138.249 99.7131 138.249 99.2614C138.249 98.892 138.353 98.5653 138.56 98.2812C138.771 97.9972 139.056 97.7741 139.417 97.6122C139.781 97.4503 140.192 97.3693 140.653 97.3693C141.3 97.3693 141.809 97.5114 142.178 97.7955C142.55 98.0795 142.815 98.4545 142.971 98.9205ZM149.24 98.9205L148.337 99.1761C148.28 99.0256 148.196 98.8793 148.086 98.7372C147.978 98.5923 147.83 98.473 147.642 98.3793C147.455 98.2855 147.215 98.2386 146.922 98.2386C146.522 98.2386 146.188 98.331 145.921 98.5156C145.657 98.6974 145.525 98.929 145.525 99.2102C145.525 99.4602 145.615 99.6577 145.797 99.8026C145.979 99.9474 146.263 100.068 146.65 100.165L147.621 100.403C148.206 100.545 148.642 100.763 148.929 101.055C149.216 101.345 149.36 101.719 149.36 102.176C149.36 102.551 149.252 102.886 149.036 103.182C148.823 103.477 148.525 103.71 148.141 103.881C147.757 104.051 147.311 104.136 146.803 104.136C146.135 104.136 145.583 103.991 145.145 103.702C144.708 103.412 144.431 102.989 144.314 102.432L145.269 102.193C145.36 102.545 145.532 102.81 145.784 102.986C146.04 103.162 146.374 103.25 146.786 103.25C147.255 103.25 147.627 103.151 147.902 102.952C148.181 102.75 148.32 102.509 148.32 102.227C148.32 102 148.24 101.81 148.081 101.656C147.922 101.5 147.678 101.384 147.348 101.307L146.257 101.051C145.658 100.909 145.218 100.689 144.936 100.391C144.658 100.089 144.519 99.7131 144.519 99.2614C144.519 98.892 144.623 98.5653 144.83 98.2812C145.04 97.9972 145.326 97.7741 145.686 97.6122C146.05 97.4503 146.462 97.3693 146.922 97.3693C147.57 97.3693 148.078 97.5114 148.448 97.7955C148.82 98.0795 149.084 98.4545 149.24 98.9205Z" fill="#EEEEEE"/>
<path d="M35.9205 123V116.455H36.9261V123H35.9205ZM36.4318 115.364C36.2358 115.364 36.0668 115.297 35.9247 115.163C35.7855 115.03 35.7159 114.869 35.7159 114.682C35.7159 114.494 35.7855 114.334 35.9247 114.2C36.0668 114.067 36.2358 114 36.4318 114C36.6278 114 36.7955 114.067 36.9347 114.2C37.0767 114.334 37.1477 114.494 37.1477 114.682C37.1477 114.869 37.0767 115.03 36.9347 115.163C36.7955 115.297 36.6278 115.364 36.4318 115.364ZM39.7738 119.062V123H38.7681V116.455H39.7397V117.477H39.8249C39.9783 117.145 40.2113 116.878 40.5238 116.676C40.8363 116.472 41.2397 116.369 41.734 116.369C42.1772 116.369 42.565 116.46 42.8974 116.642C43.2298 116.821 43.4883 117.094 43.6729 117.46C43.8576 117.824 43.9499 118.284 43.9499 118.841V123H42.9442V118.909C42.9442 118.395 42.8107 117.994 42.5437 117.707C42.2766 117.418 41.9102 117.273 41.4442 117.273C41.1232 117.273 40.8363 117.342 40.5835 117.482C40.3335 117.621 40.136 117.824 39.9911 118.091C39.8462 118.358 39.7738 118.682 39.7738 119.062ZM48.2592 123.136C47.7138 123.136 47.2322 122.999 46.8146 122.723C46.397 122.445 46.0703 122.053 45.8345 121.547C45.5987 121.038 45.4808 120.438 45.4808 119.744C45.4808 119.057 45.5987 118.46 45.8345 117.955C46.0703 117.449 46.3984 117.058 46.8189 116.783C47.2393 116.507 47.7251 116.369 48.2763 116.369C48.7024 116.369 49.0391 116.44 49.2862 116.582C49.5362 116.722 49.7266 116.881 49.8572 117.06C49.9908 117.236 50.0945 117.381 50.1683 117.494H50.2536V114.273H51.2592V123H50.2876V121.994H50.1683C50.0945 122.114 49.9893 122.264 49.853 122.446C49.7166 122.625 49.522 122.786 49.2692 122.928C49.0163 123.067 48.6797 123.136 48.2592 123.136ZM48.3956 122.233C48.799 122.233 49.1399 122.128 49.4183 121.918C49.6967 121.705 49.9084 121.411 50.0533 121.036C50.1982 120.658 50.2706 120.222 50.2706 119.727C50.2706 119.239 50.1996 118.811 50.0575 118.445C49.9155 118.075 49.7053 117.788 49.4268 117.584C49.1484 117.376 48.8047 117.273 48.3956 117.273C47.9695 117.273 47.6143 117.382 47.3303 117.601C47.049 117.817 46.8374 118.111 46.6953 118.483C46.5561 118.852 46.4865 119.267 46.4865 119.727C46.4865 120.193 46.5575 120.616 46.6996 120.997C46.8445 121.375 47.0575 121.676 47.3388 121.901C47.6229 122.122 47.9751 122.233 48.3956 122.233ZM55.9851 123.136C55.3544 123.136 54.8104 122.997 54.353 122.719C53.8984 122.438 53.5476 122.045 53.3004 121.543C53.0561 121.037 52.9339 120.449 52.9339 119.778C52.9339 119.108 53.0561 118.517 53.3004 118.006C53.5476 117.491 53.8913 117.091 54.3317 116.804C54.7749 116.514 55.2919 116.369 55.8828 116.369C56.2237 116.369 56.5604 116.426 56.8928 116.54C57.2251 116.653 57.5277 116.838 57.8004 117.094C58.0732 117.347 58.2905 117.682 58.4524 118.099C58.6143 118.517 58.6953 119.031 58.6953 119.642V120.068H53.6499V119.199H57.6726C57.6726 118.83 57.5987 118.5 57.451 118.21C57.3061 117.92 57.0987 117.692 56.8288 117.524C56.5618 117.357 56.2464 117.273 55.8828 117.273C55.4822 117.273 55.1357 117.372 54.843 117.571C54.5533 117.767 54.3303 118.023 54.174 118.338C54.0178 118.653 53.9396 118.991 53.9396 119.352V119.932C53.9396 120.426 54.0249 120.845 54.1953 121.189C54.3686 121.53 54.6087 121.79 54.9155 121.969C55.2223 122.145 55.5788 122.233 55.9851 122.233C56.2493 122.233 56.4879 122.196 56.701 122.122C56.9169 122.045 57.103 121.932 57.2592 121.781C57.4155 121.628 57.5362 121.437 57.6214 121.21L58.593 121.483C58.4908 121.812 58.3189 122.102 58.0774 122.352C57.8359 122.599 57.5376 122.793 57.1825 122.932C56.8274 123.068 56.4283 123.136 55.9851 123.136ZM60.7994 116.455L62.3675 119.131L63.9357 116.455H65.0948L62.9812 119.727L65.0948 123H63.9357L62.3675 120.46L60.7994 123H59.6403L61.7198 119.727L59.6403 116.455H60.7994ZM67.2628 123.068C67.0526 123.068 66.8722 122.993 66.7216 122.842C66.571 122.692 66.4957 122.511 66.4957 122.301C66.4957 122.091 66.571 121.911 66.7216 121.76C66.8722 121.609 67.0526 121.534 67.2628 121.534C67.473 121.534 67.6534 121.609 67.804 121.76C67.9545 121.911 68.0298 122.091 68.0298 122.301C68.0298 122.44 67.9943 122.568 67.9233 122.685C67.8551 122.801 67.7628 122.895 67.6463 122.966C67.5327 123.034 67.4048 123.068 67.2628 123.068ZM69.8345 116.455H70.8402V123.477C70.8402 123.881 70.7706 124.23 70.6314 124.526C70.495 124.821 70.2876 125.05 70.0092 125.212C69.7337 125.374 69.3857 125.455 68.9652 125.455C68.9311 125.455 68.897 125.455 68.8629 125.455C68.8288 125.455 68.7947 125.455 68.7607 125.455V124.517C68.7947 124.517 68.826 124.517 68.8544 124.517C68.8828 124.517 68.9141 124.517 68.9482 124.517C69.255 124.517 69.4794 124.426 69.6214 124.244C69.7635 124.065 69.8345 123.81 69.8345 123.477V116.455ZM70.3288 115.364C70.1328 115.364 69.9638 115.297 69.8217 115.163C69.6825 115.03 69.6129 114.869 69.6129 114.682C69.6129 114.494 69.6825 114.334 69.8217 114.2C69.9638 114.067 70.1328 114 70.3288 114C70.5249 114 70.6925 114.067 70.8317 114.2C70.9737 114.334 71.0447 114.494 71.0447 114.682C71.0447 114.869 70.9737 115.03 70.8317 115.163C70.6925 115.297 70.5249 115.364 70.3288 115.364ZM77.3185 117.92L76.4151 118.176C76.3583 118.026 76.2745 117.879 76.1637 117.737C76.0558 117.592 75.908 117.473 75.7205 117.379C75.533 117.286 75.293 117.239 75.0004 117.239C74.5998 117.239 74.266 117.331 73.9989 117.516C73.7347 117.697 73.6026 117.929 73.6026 118.21C73.6026 118.46 73.6935 118.658 73.8754 118.803C74.0572 118.947 74.3413 119.068 74.7276 119.165L75.6992 119.403C76.2844 119.545 76.7205 119.763 77.0075 120.055C77.2944 120.345 77.4379 120.719 77.4379 121.176C77.4379 121.551 77.3299 121.886 77.114 122.182C76.9009 122.477 76.6026 122.71 76.2191 122.881C75.8356 123.051 75.3896 123.136 74.881 123.136C74.2134 123.136 73.6609 122.991 73.2234 122.702C72.7859 122.412 72.5089 121.989 72.3924 121.432L73.3469 121.193C73.4379 121.545 73.6097 121.81 73.8626 121.986C74.1183 122.162 74.4521 122.25 74.864 122.25C75.3327 122.25 75.7049 122.151 75.9805 121.952C76.2589 121.75 76.3981 121.509 76.3981 121.227C76.3981 121 76.3185 120.81 76.1594 120.656C76.0004 120.5 75.756 120.384 75.4265 120.307L74.3356 120.051C73.7362 119.909 73.2958 119.689 73.0146 119.391C72.7362 119.089 72.5969 118.713 72.5969 118.261C72.5969 117.892 72.7006 117.565 72.908 117.281C73.1183 116.997 73.4038 116.774 73.7646 116.612C74.1282 116.45 74.5401 116.369 75.0004 116.369C75.6481 116.369 76.1566 116.511 76.5259 116.795C76.8981 117.08 77.1623 117.455 77.3185 117.92Z" fill="#EEEEEE"/>
<ellipse cx="33" cy="80.0036" rx="0.8" ry="0.74463" fill="#2EC6DE"/>
<path d="M35.8834 75.376C36.1083 75.4969 36.2777 75.7228 36.3734 76.0653C36.4694 76.4094 36.4863 76.855 36.4135 77.3782C36.268 78.4238 35.7749 79.7316 34.9601 81.0453C34.1454 82.3587 33.1753 83.4095 32.2754 84.0496C31.8249 84.3699 31.4015 84.5799 31.0333 84.6745C30.6668 84.7686 30.3719 84.745 30.1469 84.6242C29.9218 84.5032 29.7517 84.277 29.6561 83.9344C29.56 83.5903 29.5445 83.1442 29.6173 82.6211C29.7629 81.5756 30.2555 80.2683 31.0702 78.9549C31.885 77.6412 32.8553 76.5898 33.7554 75.9498C34.2056 75.6296 34.6281 75.4198 34.9962 75.3252C35.3628 75.231 35.6583 75.255 35.8834 75.376Z" stroke="#2EC6DE" stroke-width="0.5"/>
<path d="M30.1469 75.3759C30.3719 75.255 30.6668 75.2314 31.0333 75.3256C31.4014 75.4201 31.8245 75.6294 32.2749 75.9496C33.175 76.5897 34.1453 77.6411 34.9601 78.9548C35.7748 80.2682 36.2674 81.5755 36.413 82.621C36.4858 83.1443 36.4695 83.5906 36.3734 83.9347C36.2777 84.2772 36.1083 84.5031 35.8834 84.624C35.6583 84.745 35.3628 84.769 34.9962 84.6748C34.628 84.5802 34.2052 84.3697 33.7549 84.0494C32.855 83.4093 31.8849 82.3586 31.0702 81.0452C30.2554 79.7315 29.7623 78.4236 29.6168 77.3781C29.5441 76.8551 29.5601 76.4096 29.6561 76.0657C29.7518 75.723 29.9219 75.4968 30.1469 75.3759Z" stroke="#2EC6DE" stroke-width="0.5"/>
<path d="M27.25 80.0034C27.2501 79.776 27.3681 79.5316 27.6406 79.2817C27.9134 79.0317 28.3219 78.7952 28.8477 78.5913C29.898 78.1839 31.366 77.9262 33 77.9262C34.634 77.9262 36.102 78.1839 37.1523 78.5913C37.6781 78.7952 38.0866 79.0317 38.3594 79.2817C38.6319 79.5316 38.7499 79.776 38.75 80.0034C38.75 80.2308 38.632 80.4751 38.3594 80.7251C38.0866 80.9751 37.6781 81.2116 37.1523 81.4155C36.102 81.8228 34.634 82.0805 33 82.0805C31.366 82.0805 29.898 81.8228 28.8477 81.4155C28.3219 81.2116 27.9134 80.9751 27.6406 80.7251C27.368 80.4751 27.25 80.2308 27.25 80.0034Z" stroke="#2EC6DE" stroke-width="0.5"/>
<line x1="20.8965" y1="41.1465" x2="16.6538" y2="45.3891" stroke="#EEEEEE"/>
<line x1="13.1183" y1="41.1464" x2="17.3609" y2="45.3891" stroke="#EEEEEE"/>
<line x1="28.8965" y1="60.1464" x2="24.6538" y2="64.3891" stroke="#EEEEEE"/>
<line x1="21.1183" y1="60.1464" x2="25.3609" y2="64.3891" stroke="#EEEEEE"/>
<g clip-path="url(#clip0_1_47)">
<path d="M33.3722 104L35.0426 93.8182H36.0369L34.3665 104H33.3722ZM28.7386 101.176L28.8977 100.182H36.4943L36.3352 101.176H28.7386ZM29.7926 104L31.4631 93.8182H32.4574L30.7869 104H29.7926ZM29.3352 97.6364L29.4943 96.642H37.0909L36.9318 97.6364H29.3352Z" fill="#2EC6DE"/>
</g>
<path d="M21.544 115.727H23.0639V120.798C23.0639 121.267 22.9586 121.674 22.7479 122.02C22.5395 122.366 22.2495 122.632 21.8778 122.819C21.5062 123.006 21.0741 123.099 20.5817 123.099C20.1437 123.099 19.746 123.022 19.3885 122.869C19.0334 122.712 18.7517 122.476 18.5433 122.158C18.335 121.839 18.232 121.437 18.2344 120.955H19.7649C19.7696 121.146 19.8087 121.311 19.8821 121.448C19.9579 121.583 20.0608 121.687 20.1911 121.761C20.3236 121.832 20.4799 121.867 20.6598 121.867C20.8492 121.867 21.009 121.827 21.1392 121.746C21.2718 121.664 21.3724 121.543 21.4411 121.384C21.5097 121.226 21.544 121.03 21.544 120.798V115.727ZM28.2805 117.819C28.2521 117.532 28.1302 117.31 27.9148 117.151C27.6993 116.993 27.407 116.913 27.0376 116.913C26.7867 116.913 26.5748 116.949 26.402 117.02C26.2292 117.089 26.0966 117.184 26.0043 117.308C25.9143 117.431 25.8693 117.57 25.8693 117.727C25.8646 117.857 25.8918 117.97 25.951 118.067C26.0125 118.165 26.0966 118.249 26.2031 118.32C26.3097 118.388 26.4328 118.449 26.5724 118.501C26.7121 118.55 26.8613 118.593 27.0199 118.629L27.6733 118.785C27.9905 118.856 28.2817 118.951 28.5469 119.069C28.812 119.187 29.0417 119.333 29.2358 119.506C29.4299 119.679 29.5803 119.882 29.6868 120.116C29.7957 120.351 29.8513 120.62 29.8537 120.923C29.8513 121.368 29.7377 121.754 29.5128 122.08C29.2902 122.405 28.9683 122.657 28.5469 122.837C28.1278 123.014 27.6224 123.103 27.0305 123.103C26.4434 123.103 25.9321 123.013 25.4964 122.833C25.0632 122.653 24.7247 122.387 24.4808 122.034C24.2393 121.679 24.1127 121.24 24.1009 120.717H25.5888C25.6054 120.96 25.6752 121.164 25.7983 121.327C25.9238 121.488 26.0907 121.61 26.299 121.693C26.5097 121.774 26.7476 121.814 27.0128 121.814C27.2732 121.814 27.4993 121.776 27.6911 121.7C27.8852 121.625 28.0355 121.519 28.142 121.384C28.2486 121.249 28.3018 121.094 28.3018 120.919C28.3018 120.756 28.2533 120.618 28.1562 120.507C28.0616 120.396 27.9219 120.301 27.7372 120.223C27.5549 120.145 27.3312 120.074 27.0661 120.01L26.2741 119.811C25.661 119.662 25.1768 119.429 24.8217 119.112C24.4666 118.794 24.2902 118.367 24.2926 117.83C24.2902 117.389 24.4074 117.004 24.6442 116.675C24.8833 116.346 25.2112 116.089 25.6278 115.905C26.0445 115.72 26.518 115.628 27.0483 115.628C27.5881 115.628 28.0592 115.72 28.4616 115.905C28.8665 116.089 29.1813 116.346 29.4062 116.675C29.6312 117.004 29.7472 117.386 29.7543 117.819H28.2805Z" fill="#FFE100"/>
<defs>
<clipPath id="clip0_1_47">
<rect width="16" height="16" fill="white" transform="translate(25 91)"/>
</clipPath>
</defs>
</svg>
